<svg xmlns="http://www.w3.org/2000/svg" width="138" height="20" viewBox="0 0 138 20" fill="none">
  <path d="M21.5384 1L16.862 16.0887H14.3312L11.04 5.77913C10.9497 5.5287 10.8664 5.22261 10.79 4.86087C10.7484 5.03478 10.7067 5.19826 10.6651 5.3513C10.6234 5.50435 10.5783 5.64696 10.5297 5.77913L7.20725 16.0887H4.66596L0 1H2.3434C2.58642 1 2.78777 1.05913 2.94747 1.17739C3.11411 1.2887 3.22521 1.44174 3.28075 1.63652L5.84287 10.6626C5.89842 10.8852 5.95049 11.1287 5.99909 11.393C6.05464 11.6504 6.11019 11.9217 6.16574 12.207C6.22128 11.9148 6.2803 11.64 6.34279 11.3826C6.41223 11.1252 6.48513 10.8852 6.56151 10.6626L9.5194 1.63652C9.57494 1.47652 9.68257 1.33044 9.84226 1.19826C10.0089 1.06609 10.2103 1 10.4463 1H11.2691C11.5122 1 11.71 1.05913 11.8628 1.17739C12.0155 1.29565 12.1301 1.4487 12.2065 1.63652L15.154 10.6626C15.2998 11.0939 15.4317 11.5913 15.5497 12.1548C15.64 11.6052 15.7407 11.1078 15.8518 10.6626L18.4139 1.63652C18.4555 1.46261 18.5597 1.31304 18.7263 1.18783C18.8999 1.06261 19.1048 1 19.3408 1H21.5384ZM29.0224 13.8974C29.5431 13.8974 29.9805 13.8348 30.3347 13.7096C30.6888 13.5843 30.97 13.4174 31.1783 13.2087C31.3935 13 31.5463 12.7565 31.6365 12.4783C31.7338 12.2 31.7824 11.9043 31.7824 11.5913C31.7824 11.2643 31.7303 10.9722 31.6261 10.7148C31.522 10.4504 31.3588 10.2278 31.1366 10.047C30.9144 9.85913 30.6263 9.71652 30.2722 9.61913C29.925 9.52174 29.5049 9.47304 29.0119 9.47304H26.1894V13.8974H29.0224ZM26.1894 3.17044V7.53217H28.4183C29.3765 7.53217 30.0986 7.35826 30.5846 7.01044C31.0776 6.66261 31.3241 6.10957 31.3241 5.3513C31.3241 4.56522 31.1019 4.00522 30.6575 3.6713C30.2131 3.33739 29.5188 3.17044 28.5745 3.17044H26.1894ZM28.5745 1C29.5605 1 30.4041 1.09391 31.1054 1.28174C31.8067 1.46957 32.3795 1.73739 32.8239 2.08522C33.2752 2.43304 33.605 2.85391 33.8133 3.34783C34.0216 3.84174 34.1258 4.39826 34.1258 5.01739C34.1258 5.37217 34.0737 5.71304 33.9695 6.04C33.8654 6.36 33.7022 6.66261 33.4799 6.94783C33.2648 7.22609 32.987 7.48 32.6468 7.70957C32.3135 7.93913 31.9143 8.13391 31.4491 8.29391C33.5182 8.76 34.5528 9.88 34.5528 11.6539C34.5528 12.2939 34.4313 12.8852 34.1882 13.4278C33.9452 13.9704 33.5911 14.44 33.1259 14.8365C32.6607 15.2261 32.0879 15.5322 31.4074 15.7548C30.727 15.9774 29.9493 16.0887 29.0744 16.0887H23.3878V1H28.5745ZM54.3387 16.0887H51.5162V3.16H44.9755V16.0887H42.1634V1H54.3387V16.0887ZM62.6587 11.5183C61.9157 11.553 61.2908 11.6191 60.784 11.7165C60.2771 11.807 59.8709 11.9252 59.5654 12.0713C59.2599 12.2174 59.0412 12.3878 58.9092 12.5826C58.7773 12.7774 58.7114 12.9896 58.7114 13.2191C58.7114 13.6713 58.8433 13.9948 59.1071 14.1896C59.3779 14.3843 59.7286 14.4817 60.1591 14.4817C60.6868 14.4817 61.1416 14.3878 61.5234 14.2C61.9123 14.0052 62.2907 13.713 62.6587 13.3235V11.5183ZM56.7637 6.87478C57.9927 5.74783 59.4717 5.18435 61.2006 5.18435C61.8255 5.18435 62.3844 5.2887 62.8774 5.49739C63.3704 5.69913 63.787 5.98435 64.1272 6.35304C64.4674 6.71478 64.7243 7.14957 64.8979 7.65739C65.0785 8.16522 65.1687 8.72174 65.1687 9.32696V16.0887H64.0022C63.7592 16.0887 63.5717 16.0539 63.4398 15.9843C63.3079 15.9078 63.2037 15.7583 63.1274 15.5357L62.8982 14.7635C62.6274 15.007 62.3636 15.2226 62.1067 15.4104C61.8498 15.5913 61.5825 15.7443 61.3047 15.8696C61.027 15.9948 60.7284 16.0887 60.409 16.1513C60.0966 16.2209 59.7494 16.2557 59.3675 16.2557C58.9162 16.2557 58.4996 16.1965 58.1177 16.0783C57.7358 15.953 57.406 15.7687 57.1283 15.5252C56.8505 15.2817 56.6353 14.9791 56.4825 14.6174C56.3298 14.2557 56.2534 13.8348 56.2534 13.3548C56.2534 13.0835 56.2985 12.8157 56.3888 12.5513C56.4791 12.28 56.6249 12.0226 56.8262 11.7791C57.0345 11.5357 57.3019 11.3061 57.6282 11.0904C57.9545 10.8748 58.3538 10.687 58.8259 10.527C59.305 10.367 59.8605 10.2383 60.4923 10.1409C61.1242 10.0365 61.8463 9.97391 62.6587 9.95304V9.32696C62.6587 8.61044 62.5059 8.08174 62.2004 7.74087C61.8949 7.39304 61.454 7.21913 60.8777 7.21913C60.4611 7.21913 60.1139 7.26783 59.8362 7.36522C59.5654 7.46261 59.3259 7.57391 59.1176 7.69913C58.9093 7.81739 58.7183 7.92522 58.5447 8.02261C58.3781 8.12 58.1906 8.1687 57.9823 8.1687C57.8018 8.1687 57.649 8.12348 57.524 8.03304C57.3991 7.93565 57.2984 7.82435 57.222 7.69913L56.7637 6.87478ZM70.1641 13.313C70.4557 13.6678 70.7716 13.9183 71.1118 14.0643C71.459 14.2104 71.8339 14.2835 72.2367 14.2835C72.6255 14.2835 72.9761 14.2104 73.2886 14.0643C73.601 13.9183 73.8649 13.6957 74.0801 13.3965C74.3023 13.0974 74.4724 12.7217 74.5905 12.2696C74.7085 11.8104 74.7675 11.2713 74.7675 10.6522C74.7675 10.0261 74.7155 9.49739 74.6113 9.06609C74.5141 8.62783 74.3718 8.27304 74.1843 8.00174C73.9968 7.73043 73.7677 7.53217 73.4969 7.40696C73.233 7.28174 72.931 7.21913 72.5908 7.21913C72.0561 7.21913 71.6013 7.33391 71.2264 7.56348C70.8515 7.78609 70.4973 8.10261 70.1641 8.51304V13.313ZM70.0287 6.84348C70.4661 6.34957 70.9626 5.94957 71.518 5.64348C72.0735 5.33739 72.7262 5.18435 73.4761 5.18435C74.0593 5.18435 74.5905 5.30609 75.0696 5.54957C75.5556 5.79304 75.9722 6.14783 76.3194 6.61391C76.6735 7.07304 76.9443 7.64348 77.1318 8.32522C77.3262 9 77.4234 9.77565 77.4234 10.6522C77.4234 11.4522 77.3158 12.193 77.1005 12.8748C76.8853 13.5565 76.5763 14.1478 76.1736 14.6487C75.7778 15.1496 75.2952 15.5426 74.7259 15.8278C74.1635 16.1061 73.5316 16.2452 72.8303 16.2452C72.2332 16.2452 71.7229 16.1548 71.2993 15.9739C70.8758 15.7861 70.4973 15.5287 70.1641 15.2017V19.5843H67.5915V5.38261H69.1642C69.4975 5.38261 69.7162 5.53913 69.8204 5.85217L70.0287 6.84348ZM88.3721 7.29217H84.5602V16.0887H81.9876V7.29217H78.1861V5.38261H88.3721V7.29217ZM99.1977 5.38261V16.0887H96.6252V11.3513H92.4591V16.0887H89.8866V5.38261H92.4591V9.44174H96.6252V5.38261H99.1977ZM108.63 9.50435C108.63 9.17044 108.582 8.85739 108.484 8.56522C108.394 8.26609 108.255 8.00522 108.068 7.78261C107.88 7.56 107.641 7.38609 107.349 7.26087C107.065 7.1287 106.731 7.06261 106.349 7.06261C105.606 7.06261 105.02 7.27478 104.589 7.69913C104.166 8.12348 103.895 8.72522 103.777 9.50435H108.63ZM103.725 11.0591C103.766 11.6087 103.864 12.0852 104.016 12.4887C104.169 12.8852 104.371 13.2157 104.62 13.48C104.87 13.7374 105.166 13.9322 105.506 14.0643C105.853 14.1896 106.235 14.2522 106.651 14.2522C107.068 14.2522 107.426 14.2035 107.724 14.1061C108.03 14.0087 108.294 13.9009 108.516 13.7826C108.745 13.6643 108.943 13.5565 109.109 13.4591C109.283 13.3617 109.45 13.313 109.609 13.313C109.825 13.313 109.984 13.393 110.088 13.553L110.828 14.4922C110.543 14.8261 110.224 15.1078 109.87 15.3374C109.516 15.56 109.144 15.7409 108.755 15.88C108.373 16.0122 107.981 16.1061 107.578 16.1617C107.183 16.2174 106.797 16.2452 106.422 16.2452C105.679 16.2452 104.988 16.1235 104.35 15.88C103.711 15.6296 103.155 15.2643 102.683 14.7843C102.211 14.2974 101.84 13.6991 101.569 12.9896C101.298 12.273 101.163 11.4452 101.163 10.5061C101.163 9.77565 101.281 9.09043 101.517 8.45043C101.753 7.80348 102.09 7.24348 102.527 6.77044C102.971 6.29044 103.51 5.9113 104.141 5.63304C104.78 5.35478 105.499 5.21565 106.297 5.21565C106.971 5.21565 107.592 5.32348 108.162 5.53913C108.731 5.75478 109.22 6.0713 109.63 6.4887C110.04 6.89913 110.359 7.40696 110.588 8.01217C110.824 8.61043 110.942 9.29565 110.942 10.0678C110.942 10.4574 110.901 10.7217 110.817 10.8609C110.734 10.993 110.574 11.0591 110.338 11.0591H103.725ZM105.693 2.60696C105.693 2.80174 105.655 2.98609 105.579 3.16C105.502 3.32696 105.395 3.47304 105.256 3.59826C105.124 3.72348 104.968 3.82435 104.787 3.90087C104.614 3.97044 104.426 4.00522 104.225 4.00522C104.037 4.00522 103.857 3.97044 103.683 3.90087C103.516 3.82435 103.367 3.72348 103.235 3.59826C103.11 3.47304 103.01 3.32696 102.933 3.16C102.857 2.98609 102.819 2.80174 102.819 2.60696C102.819 2.40522 102.857 2.21739 102.933 2.04348C103.01 1.86261 103.11 1.70609 103.235 1.57391C103.367 1.44174 103.516 1.33739 103.683 1.26087C103.857 1.18435 104.037 1.14609 104.225 1.14609C104.426 1.14609 104.614 1.18435 104.787 1.26087C104.968 1.33739 105.124 1.44174 105.256 1.57391C105.395 1.70609 105.502 1.86261 105.579 2.04348C105.655 2.21739 105.693 2.40522 105.693 2.60696ZM109.901 2.60696C109.901 2.80174 109.863 2.98609 109.786 3.16C109.71 3.32696 109.606 3.47304 109.474 3.59826C109.349 3.72348 109.196 3.82435 109.016 3.90087C108.842 3.97044 108.655 4.00522 108.453 4.00522C108.259 4.00522 108.075 3.97044 107.901 3.90087C107.728 3.82435 107.575 3.72348 107.443 3.59826C107.318 3.47304 107.217 3.32696 107.141 3.16C107.065 2.98609 107.026 2.80174 107.026 2.60696C107.026 2.40522 107.065 2.21739 107.141 2.04348C107.217 1.86261 107.318 1.70609 107.443 1.57391C107.575 1.44174 107.728 1.33739 107.901 1.26087C108.075 1.18435 108.259 1.14609 108.453 1.14609C108.655 1.14609 108.842 1.18435 109.016 1.26087C109.196 1.33739 109.349 1.44174 109.474 1.57391C109.606 1.70609 109.71 1.86261 109.786 2.04348C109.863 2.21739 109.901 2.40522 109.901 2.60696ZM115.445 13.313C115.737 13.6678 116.053 13.9183 116.393 14.0643C116.74 14.2104 117.115 14.2835 117.518 14.2835C117.907 14.2835 118.257 14.2104 118.57 14.0643C118.882 13.9183 119.146 13.6957 119.361 13.3965C119.584 13.0974 119.754 12.7217 119.872 12.2696C119.99 11.8104 120.049 11.2713 120.049 10.6522C120.049 10.0261 119.997 9.49739 119.893 9.06609C119.795 8.62783 119.653 8.27304 119.465 8.00174C119.278 7.73043 119.049 7.53217 118.778 7.40696C118.514 7.28174 118.212 7.21913 117.872 7.21913C117.337 7.21913 116.883 7.33391 116.508 7.56348C116.133 7.78609 115.779 8.10261 115.445 8.51304V13.313ZM115.31 6.84348C115.747 6.34957 116.244 5.94957 116.799 5.64348C117.355 5.33739 118.007 5.18435 118.757 5.18435C119.341 5.18435 119.872 5.30609 120.351 5.54957C120.837 5.79304 121.253 6.14783 121.601 6.61391C121.955 7.07304 122.225 7.64348 122.413 8.32522C122.607 9 122.705 9.77565 122.705 10.6522C122.705 11.4522 122.597 12.193 122.382 12.8748C122.166 13.5565 121.857 14.1478 121.455 14.6487C121.059 15.1496 120.576 15.5426 120.007 15.8278C119.445 16.1061 118.813 16.2452 118.112 16.2452C117.514 16.2452 117.004 16.1548 116.58 15.9739C116.157 15.7861 115.779 15.5287 115.445 15.2017V19.5843H112.873V5.38261H114.445C114.779 5.38261 114.997 5.53913 115.102 5.85217L115.31 6.84348ZM129.055 14.2417C129.638 14.2417 130.072 14.0957 130.357 13.8035C130.649 13.5113 130.794 13.1357 130.794 12.6765C130.794 12.4817 130.76 12.2939 130.69 12.113C130.628 11.9322 130.527 11.7722 130.388 11.633C130.249 11.4939 130.069 11.3861 129.847 11.3096C129.625 11.2261 129.357 11.1843 129.045 11.1843H127.139V14.2417H129.055ZM129.034 9.34783C129.777 9.34783 130.406 9.43826 130.919 9.61913C131.433 9.8 131.85 10.0435 132.169 10.3496C132.489 10.6557 132.718 11.0104 132.857 11.4139C133.003 11.8104 133.075 12.2278 133.075 12.6661C133.075 13.167 132.985 13.6296 132.805 14.0539C132.631 14.4713 132.371 14.833 132.023 15.1391C131.683 15.4383 131.263 15.6713 130.763 15.8383C130.27 16.0052 129.704 16.0887 129.066 16.0887H124.691V5.38261H127.139V9.34783H129.034ZM137.596 5.38261V16.0887H135.023V5.38261H137.596Z" fill="#6C11C9"/>
</svg>
